PathFileType	4	(X/Y/Z)	S1_rest_med_left.trc
DataRate	CameraRate	NumFrames	NumMarkers	Units	OrigDataRate	OrigDataStartFrame	OrigNumFrames
250.00	250.00	12	18	mm	250.00	1	22613
Frame#	Time	c7	r_should	l_should	clavicle	r_upa	r_elb_l	r_elb_m	r_low	r_wri_l	r_wri_m	r_met	l_upa	l_elb_l	l_elb_m	l_low	l_wri_l	l_wri_m	l_met
	X1	Y1	Z1	X2	Y2	Z2	X3	Y3	Z3	X4	Y4	Z4	X5	Y5	Z5	X6	Y6	Z6	X7	Y7	Z7	X8	Y8	Z8	X9	Y9	Z9	X10	Y10	Z10	X11	Y11	Z11	X12	Y12	Z12	X13	Y13	Z13	X14	Y14	Z14	X15	Y15	Z15	X16	Y16	Z16	X17	Y17	Z17	X18	Y18	Z18
1	0.00000	467.65485	1421.29004	20.41834	553.40723	1357.48975	197.11880	499.16547	1351.69604	-169.45714	595.49872	1287.90833	2.04353	540.71387	1170.63342	286.74353	556.45850	1074.16711	302.22815	469.37994	1047.03015	260.75854	551.00122	943.35443	318.66742	634.13306	884.69055	251.12015	581.81940	850.28119	286.79037	687.49396	806.62262	242.04399	477.74719	1130.89246	-205.57004	477.01651	1048.86938	-223.81943	444.45746	1020.01788	-127.85347	454.47705	899.31067	-202.56377	521.99207	820.14191	-236.45100	491.54889	792.19067	-173.42065	503.91061	745.08661	-254.34769
2	0.00400	467.64539	1421.30383	20.40061	553.41785	1357.50452	197.07843	499.14026	1351.68250	-169.48018	595.44879	1287.89746	2.01559	540.78278	1170.66064	286.73862	556.50415	1074.30786	302.14886	469.44958	1047.05859	260.79584	551.14233	943.38220	318.64984	634.24500	884.74579	251.05467	581.96307	850.32690	286.76852	687.62335	806.69318	241.95789	477.72897	1130.86609	-205.54884	476.98895	1048.84351	-223.79160	444.43622	1020.01331	-127.81451	454.45099	899.30194	-202.50801	521.98529	820.11511	-236.41072	491.55145	792.16425	-173.36372	503.90042	745.06775	-254.28891
3	0.00800	467.63858	1421.31396	20.37330	553.42609	1357.52124	197.04477	499.11517	1351.66162	-169.50485	595.40295	1287.87036	1.98919	540.86371	1170.68604	286.72342	556.48151	1074.58069	301.99078	469.53253	1047.07007	260.82578	551.28412	943.40692	318.63855	634.35657	884.79700	250.99335	582.10339	850.36987	286.74396	687.74487	806.75092	241.87154	477.70990	1130.83496	-205.53308	476.96854	1048.81494	-223.76665	444.43948	1019.99591	-127.76515	454.42380	899.28857	-202.46013	521.97687	820.08752	-236.36955	491.56134	792.13965	-173.30685	503.89410	745.05389	-254.22621
4	0.01200	467.63275	1421.32605	20.34863	553.43494	1357.53125	197.00444	499.09366	1351.63965	-169.52196	595.35553	1287.85022	1.96634	540.94385	1170.70813	286.71585	556.54761	1074.66638	301.92981	469.62466	1047.07141	260.85605	551.41840	943.43304	318.63116	634.46118	884.83661	250.93806	582.23560	850.40588	286.72287	687.86432	806.79883	241.78787	477.69147	1130.80383	-205.51541	476.95245	1048.78601	-223.73846	444.45670	1019.97778	-127.71785	454.40253	899.26385	-202.41638	521.97607	820.05829	-236.33015	491.57666	792.11188	-173.24484	503.88443	745.03284	-254.17363
5	0.01600	467.62030	1421.33582	20.32313	553.44354	1357.53906	196.96117	499.06732	1351.62256	-169.54875	595.31097	1287.83008	1.93765	541.01691	1170.72363	286.70737	556.62622	1074.70154	301.89490	469.69727	1047.08179	260.87839	551.54529	943.45569	318.62302	634.55695	884.86987	250.88567	582.36237	850.43500	286.70227	687.97784	806.84119	241.70499	477.67505	1130.77051	-205.50037	476.93573	1048.75256	-223.71152	444.44684	1019.95477	-127.68355	454.38196	899.23889	-202.37589	521.97351	820.02295	-236.28920	491.58673	792.08588	-173.19574	503.87775	744.99457	-254.12271
6	0.02000	467.60522	1421.33960	20.29209	553.45465	1357.54395	196.92578	499.04092	1351.59705	-169.57501	595.26898	1287.79761	1.91136	541.09021	1170.73987	286.68784	556.71112	1074.72534	301.87006	469.77158	1047.08508	260.89630	551.67029	943.47809	318.61133	634.65344	884.89996	250.82954	582.48712	850.46619	286.68179	688.07928	806.87567	241.63402	477.65656	1130.73218	-205.48177	476.92145	1048.72058	-223.68886	444.43533	1019.93420	-127.65598	454.36172	899.21735	-202.34511	521.97028	819.98950	-236.25096	491.59872	792.06104	-173.15128	503.87180	744.97162	-254.07625
7	0.02400	467.59143	1421.34302	20.25818	553.45953	1357.55017	196.88451	499.01385	1351.57617	-169.59465	595.22980	1287.77722	1.89477	541.15314	1170.74792	286.65729	556.80212	1074.74377	301.84055	469.84689	1047.08850	260.92371	551.79041	943.49841	318.60165	634.74597	884.93390	250.76991	582.60822	850.49744	286.65784	688.17450	806.90918	241.56099	477.63525	1130.69324	-205.47148	476.90909	1048.68811	-223.67477	444.44037	1019.90845	-127.61807	454.34290	899.19189	-202.31572	521.96826	819.95837	-236.21698	491.61469	792.03088	-173.09726	503.86386	744.93744	-254.02420
8	0.02800	467.57327	1421.34497	20.22823	553.46448	1357.55017	196.83673	498.98605	1351.55969	-169.62598	595.18970	1287.75403	1.87559	541.22131	1170.76819	286.64200	556.88605	1074.76208	301.82080	469.91736	1047.09082	260.94907	551.90088	943.51373	318.58826	634.83618	884.96619	250.71404	582.72754	850.51984	286.63681	688.27069	806.95007	241.47943	477.61658	1130.65979	-205.46053	476.90253	1048.65759	-223.66174	444.45944	1019.88098	-127.58383	454.32794	899.16656	-202.28799	521.96771	819.92517	-236.18901	491.63345	792.00244	-173.05229	503.85742	744.90570	-253.97661
9	0.03200	467.55753	1421.33936	20.20524	553.46820	1357.55200	196.80553	498.95764	1351.54199	-169.65440	595.14844	1287.73633	1.85709	541.28479	1170.79297	286.63928	556.96375	1074.78137	301.79742	469.98672	1047.09717	260.98218	552.00696	943.53619	318.57986	634.92114	884.99286	250.66173	582.83502	850.54114	286.62045	688.35925	806.98395	241.40309	477.60229	1130.63220	-205.45352	476.89151	1048.62878	-223.65102	444.47943	1019.85669	-127.55644	454.31708	899.13684	-202.26263	521.96893	819.89215	-236.15837	491.65463	791.97778	-173.01131	503.84998	744.86218	-253.93105
10	0.03600	467.54047	1421.34424	20.18044	553.46295	1357.55615	196.77759	498.93216	1351.51331	-169.68314	595.10498	1287.72253	1.83939	541.34747	1170.81140	286.63492	557.04095	1074.80078	301.77838	470.04388	1047.10376	261.00327	552.10321	943.55646	318.57681	634.99640	885.02509	250.61485	582.92798	850.55902	286.60666	688.43719	807.01855	241.33235	477.58902	1130.61328	-205.44803	476.87891	1048.59680	-223.63509	444.50000	1019.82642	-127.53564	454.30255	899.11017	-202.23512	521.96967	819.85486	-236.12434	491.67682	791.95020	-172.96579	503.84033	744.82465	-253.87886
11	0.04000	467.52225	1421.35571	20.15733	553.45819	1357.56250	196.74521	498.90082	1351.49207	-169.70374	595.06061	1287.71069	1.82405	541.39923	1170.81470	286.61859	557.10803	1074.81580	301.76556	470.08676	1047.11584	261.03534	552.19818	943.57001	318.56934	635.06702	885.05878	250.57605	583.01294	850.57452	286.59045	688.51007	807.05676	241.27179	477.57855	1130.59229	-205.44066	476.87073	1048.56311	-223.61734	444.49820	1019.80615	-127.51698	454.28265	899.08850	-202.20099	521.96429	819.81940	-236.08795	491.69733	791.92377	-172.91385	503.82376	744.79333	-253.82745
12	0.04400	467.49985	1421.36487	20.13324	553.45691	1357.57239	196.71814	498.86227	1351.47351	-169.71602	595.02594	1287.68994	1.82119	541.44934	1170.82324	286.58746	557.16675	1074.83618	301.74942	470.13522	1047.11877	261.06000	552.28461	943.59039	318.56323	635.13678	885.08014	250.54234	583.09967	850.59143	286.58063	688.58380	807.08502	241.21043	477.56735	1130.57227	-205.43843	476.87415	1048.53748	-223.59372	444.50397	1019.79163	-127.49290	454.26358	899.06799	-202.16342	521.96655	819.79199	-236.05031	491.72217	791.89545	-172.85878	503.80670	744.75836	-253.77324
